<?xml version="1.0" encoding="UTF-8" standalone="no"?>
<!DOCTYPE svg PUBLIC "-//W3C//DTD SVG 1.1//EN"
 "http://www.w3.org/Graphics/SVG/1.1/DTD/svg11.dtd">
<!-- Generated by graphviz version 2.49.3 (20211023.0002)
 -->
<!-- Title: test Pages: 1 -->
<svg width="225pt" height="66pt"
 viewBox="0.00 0.00 225.00 66.00" xmlns="http://www.w3.org/2000/svg" xmlns:xlink="http://www.w3.org/1999/xlink">
<g id="graph0" class="graph" transform="scale(1 1) rotate(0) translate(4 62)">
<title>test</title>
<polygon fill="white" stroke="transparent" points="-4,4 -4,-62 221,-62 221,4 -4,4"/>
<!-- Node1 -->
<g id="node1" class="node">
<title>Node1</title>
<g id="a_node1"><a xlink:title="Self&#45;test implementations.">
<polygon fill="#bfbfbf" stroke="black" points="0,-19.5 0,-38.5 33,-38.5 33,-19.5 0,-19.5"/>
<text text-anchor="middle" x="16.5" y="-26.5" font-family="Helvetica,sans-Serif" font-size="10.00">test</text>
</a>
</g>
</g>
<!-- Node2 -->
<g id="node2" class="node">
<title>Node2</title>
<g id="a_node2"><a xlink:href="../../d5/d4c/group__sorting.html#gab99b8a397bdd0bf2903d66c22ba4ba43" target="_top" xlink:title="Merge sort algorithm implementation.">
<polygon fill="white" stroke="black" points="69,-19.5 69,-38.5 136,-38.5 136,-19.5 69,-19.5"/>
<text text-anchor="middle" x="102.5" y="-26.5" font-family="Helvetica,sans-Serif" font-size="10.00">merge_sort</text>
</a>
</g>
</g>
<!-- Node1&#45;&gt;Node2 -->
<g id="edge1" class="edge">
<title>Node1&#45;&gt;Node2</title>
<path fill="none" stroke="midnightblue" d="M33.3,-29C40.55,-29 49.54,-29 58.58,-29"/>
<polygon fill="midnightblue" stroke="midnightblue" points="58.72,-32.5 68.72,-29 58.72,-25.5 58.72,-32.5"/>
</g>
<!-- Node2&#45;&gt;Node2 -->
<g id="edge3" class="edge">
<title>Node2&#45;&gt;Node2</title>
<path fill="none" stroke="midnightblue" d="M89.24,-38.76C82.8,-47.57 87.21,-57 102.5,-57 112.05,-57 117.36,-53.31 118.43,-48.4"/>
<polygon fill="midnightblue" stroke="midnightblue" points="121.8,-47.46 115.76,-38.76 115.05,-49.33 121.8,-47.46"/>
</g>
<!-- Node3 -->
<g id="node3" class="node">
<title>Node3</title>
<g id="a_node3"><a xlink:href="../../d5/d4c/group__sorting.html#ga8dc3ec66cb3350313fdb34bfd1674729" target="_top" xlink:title="Perform merge of segments.">
<polygon fill="white" stroke="black" points="172,-38.5 172,-57.5 217,-57.5 217,-38.5 172,-38.5"/>
<text text-anchor="middle" x="194.5" y="-45.5" font-family="Helvetica,sans-Serif" font-size="10.00">merge</text>
</a>
</g>
</g>
<!-- Node2&#45;&gt;Node3 -->
<g id="edge2" class="edge">
<title>Node2&#45;&gt;Node3</title>
<path fill="none" stroke="midnightblue" d="M136.25,-35.91C144.59,-37.67 153.53,-39.56 161.82,-41.31"/>
<polygon fill="midnightblue" stroke="midnightblue" points="161.36,-44.79 171.87,-43.43 162.8,-37.94 161.36,-44.79"/>
</g>
<!-- Node4 -->
<g id="node4" class="node">
<title>Node4</title>
<g id="a_node4"><a xlink:href="../../d5/d4c/group__sorting.html#ga4b9708d87be7a409eff20e5e7e8b43c8" target="_top" xlink:title="Swap two integer variables.">
<polygon fill="white" stroke="black" points="174.5,-0.5 174.5,-19.5 214.5,-19.5 214.5,-0.5 174.5,-0.5"/>
<text text-anchor="middle" x="194.5" y="-7.5" font-family="Helvetica,sans-Serif" font-size="10.00">swap</text>
</a>
</g>
</g>
<!-- Node2&#45;&gt;Node4 -->
<g id="edge4" class="edge">
<title>Node2&#45;&gt;Node4</title>
<path fill="none" stroke="midnightblue" d="M136.25,-22.09C145.42,-20.15 155.33,-18.06 164.29,-16.17"/>
<polygon fill="midnightblue" stroke="midnightblue" points="165.2,-19.55 174.26,-14.06 163.76,-12.7 165.2,-19.55"/>
</g>
</g>
</svg>
