<?xml version="1.0" encoding="UTF-8" standalone="no"?>
<!DOCTYPE svg PUBLIC "-//W3C//DTD SVG 1.1//EN"
 "http://www.w3.org/Graphics/SVG/1.1/DTD/svg11.dtd">
<!-- Generated by graphviz version 2.49.3 (20211023.0002)
 -->
<!-- Title: main Pages: 1 -->
<svg width="299pt" height="66pt"
 viewBox="0.00 0.00 299.00 66.00" xmlns="http://www.w3.org/2000/svg" xmlns:xlink="http://www.w3.org/1999/xlink">
<g id="graph0" class="graph" transform="scale(1 1) rotate(0) translate(4 62)">
<title>main</title>
<polygon fill="white" stroke="transparent" points="-4,4 -4,-62 295,-62 295,4 -4,4"/>
<!-- Node1 -->
<g id="node1" class="node">
<title>Node1</title>
<g id="a_node1"><a xlink:title="Main function.">
<polygon fill="#bfbfbf" stroke="black" points="0,-19.5 0,-38.5 38,-38.5 38,-19.5 0,-19.5"/>
<text text-anchor="middle" x="19" y="-26.5" font-family="Helvetica,sans-Serif" font-size="10.00">main</text>
</a>
</g>
</g>
<!-- Node2 -->
<g id="node2" class="node">
<title>Node2</title>
<g id="a_node2"><a xlink:href="../../d2/d83/merge__sort_8c.html#aa8dca7b867074164d5f45b0f3851269d" target="_top" xlink:title="Self&#45;test implementations.">
<polygon fill="white" stroke="black" points="74,-19.5 74,-38.5 107,-38.5 107,-19.5 74,-19.5"/>
<text text-anchor="middle" x="90.5" y="-26.5" font-family="Helvetica,sans-Serif" font-size="10.00">test</text>
</a>
</g>
</g>
<!-- Node1&#45;&gt;Node2 -->
<g id="edge1" class="edge">
<title>Node1&#45;&gt;Node2</title>
<path fill="none" stroke="midnightblue" d="M38.26,-29C46.07,-29 55.31,-29 63.79,-29"/>
<polygon fill="midnightblue" stroke="midnightblue" points="63.95,-32.5 73.95,-29 63.95,-25.5 63.95,-32.5"/>
</g>
<!-- Node3 -->
<g id="node3" class="node">
<title>Node3</title>
<g id="a_node3"><a xlink:href="../../d5/d4c/group__sorting.html#gab99b8a397bdd0bf2903d66c22ba4ba43" target="_top" xlink:title="Merge sort algorithm implementation.">
<polygon fill="white" stroke="black" points="143,-19.5 143,-38.5 210,-38.5 210,-19.5 143,-19.5"/>
<text text-anchor="middle" x="176.5" y="-26.5" font-family="Helvetica,sans-Serif" font-size="10.00">merge_sort</text>
</a>
</g>
</g>
<!-- Node2&#45;&gt;Node3 -->
<g id="edge2" class="edge">
<title>Node2&#45;&gt;Node3</title>
<path fill="none" stroke="midnightblue" d="M107.3,-29C114.55,-29 123.54,-29 132.58,-29"/>
<polygon fill="midnightblue" stroke="midnightblue" points="132.72,-32.5 142.72,-29 132.72,-25.5 132.72,-32.5"/>
</g>
<!-- Node3&#45;&gt;Node3 -->
<g id="edge4" class="edge">
<title>Node3&#45;&gt;Node3</title>
<path fill="none" stroke="midnightblue" d="M163.24,-38.76C156.8,-47.57 161.21,-57 176.5,-57 186.05,-57 191.36,-53.31 192.43,-48.4"/>
<polygon fill="midnightblue" stroke="midnightblue" points="195.8,-47.46 189.76,-38.76 189.05,-49.33 195.8,-47.46"/>
</g>
<!-- Node4 -->
<g id="node4" class="node">
<title>Node4</title>
<g id="a_node4"><a xlink:href="../../d5/d4c/group__sorting.html#ga8dc3ec66cb3350313fdb34bfd1674729" target="_top" xlink:title="Perform merge of segments.">
<polygon fill="white" stroke="black" points="246,-38.5 246,-57.5 291,-57.5 291,-38.5 246,-38.5"/>
<text text-anchor="middle" x="268.5" y="-45.5" font-family="Helvetica,sans-Serif" font-size="10.00">merge</text>
</a>
</g>
</g>
<!-- Node3&#45;&gt;Node4 -->
<g id="edge3" class="edge">
<title>Node3&#45;&gt;Node4</title>
<path fill="none" stroke="midnightblue" d="M210.25,-35.91C218.59,-37.67 227.53,-39.56 235.82,-41.31"/>
<polygon fill="midnightblue" stroke="midnightblue" points="235.36,-44.79 245.87,-43.43 236.8,-37.94 235.36,-44.79"/>
</g>
<!-- Node5 -->
<g id="node5" class="node">
<title>Node5</title>
<g id="a_node5"><a xlink:href="../../d5/d4c/group__sorting.html#ga4b9708d87be7a409eff20e5e7e8b43c8" target="_top" xlink:title="Swap two integer variables.">
<polygon fill="white" stroke="black" points="248.5,-0.5 248.5,-19.5 288.5,-19.5 288.5,-0.5 248.5,-0.5"/>
<text text-anchor="middle" x="268.5" y="-7.5" font-family="Helvetica,sans-Serif" font-size="10.00">swap</text>
</a>
</g>
</g>
<!-- Node3&#45;&gt;Node5 -->
<g id="edge5" class="edge">
<title>Node3&#45;&gt;Node5</title>
<path fill="none" stroke="midnightblue" d="M210.25,-22.09C219.42,-20.15 229.33,-18.06 238.29,-16.17"/>
<polygon fill="midnightblue" stroke="midnightblue" points="239.2,-19.55 248.26,-14.06 237.76,-12.7 239.2,-19.55"/>
</g>
</g>
</svg>
